# xmcd CD database file
#
# Track frame offsets:
#	150
#	17594
#	29076
#	41929
#	57403
#	68321
#	78598
#	93134
#	104962
#	120549
#	134161
#	144816
#
# Disc length: 2088 seconds
#
# Revision: 0
# Processed by: cddbd v1.5.2PL0 Copyright (c) Steve Scherf et al.
# Submitted via: CDex 1.70beta2
#
DISCID=a908260c
DTITLE=Various Artist - Country Gals
DYEAR=2007
DGENRE=Country
TTITLE0=Deborah Allen/Baby I Lied
TTITLE1=Sandy Posey/Single Girl
TTITLE2=Lynn Anderson/Rose Garden
TTITLE3=Holly Dunn/Daddy's Hands
TTITLE4=Dolly Parton/(It Wasn't God Who Made) Honky Tonk Angels
TTITLE5=Skeeter Davis/My Last Date (With You)
TTITLE6=Loretta Lynn/Coal Miner's Daughter
TTITLE7=Tammy Wynette/Stand By Your Man
TTITLE8=Anne Murray/There Goes My Everything
TTITLE9=Brenda Lee/You Don't Have To Say You Love Me
TTITLE10=Patsy Cline/Crazy
TTITLE11=Billie Jo Spears/Misty Blue
EXTD=YEAR: 2007
EXTT0=
EXTT1=
EXTT2=
EXTT3=
EXTT4=
EXTT5=
EXTT6=
EXTT7=
EXTT8=
EXTT9=
EXTT10=
EXTT11=
PLAYORDER=
